<svg xmlns="http://www.w3.org/2000/svg" viewBox="0 0 24 24" fill="white">
<path d="M12 2.163c3.204 0 3.584.012 4.85.07 
1.366.062 2.633.35 3.608 1.325.975.975 
1.262 2.242 1.324 3.608.058 1.266.07 
1.646.07 4.85s-.012 3.584-.07 4.85c-.062 
1.366-.35 2.633-1.324 3.608-.975.975-2.242 
1.262-3.608 1.324-1.266.058-1.646.07-4.85.07s-3.584-.012-4.85-.07c-1.366-.062-2.633-.35-3.608-1.324-.975-.975-1.262-2.242-1.324-3.608C2.175 
15.747 2.163 15.367 2.163 12s.012-3.584.07-4.85c.062-1.366.35-2.633 
1.324-3.608C4.532 2.583 5.799 2.296 7.165 2.234 8.431 
2.176 8.811 2.163 12 2.163zm0-2.163C8.741 
0 8.332.014 7.052.072 5.773.13 4.638.428 
3.678 1.388c-.96.96-1.258 2.095-1.316 
3.374C2.304 5.043 2.29 5.452 2.29 
12c0 6.548.014 6.957.072 8.237.058 
1.279.356 2.414 1.316 3.374.96.96 2.095 
1.258 3.374 1.316 1.28.058 1.689.072 
8.237.072s6.957-.014 8.237-.072c1.279-.058 
2.414-.356 3.374-1.316.96-.96 1.258-2.095 
1.316-3.374.058-1.28.072-1.689.072-8.237 
0-6.548-.014-6.957-.072-8.237-.058-1.279-.356-2.414-1.316-3.374C20.652.428 
19.517.13 18.237.072 16.957.014 16.548 
0 12 0zm0 5.838a6.162 6.162 0 1 
0 0 12.324 6.162 6.162 0 0 0 
0-12.324zm0 10.162a3.999 3.999 0 1 
1 0-7.998 3.999 3.999 0 0 1 
0 7.998zm6.406-11.845a1.44 1.44 
0 1 1 0-2.88 1.44 1.44 0 0 1 
0 2.88z"/>
</svg>